fd_3_states
version=1
nRows=35
nColumns=17
inDegrees=yes

# SIMM Motion File Header:
name fd_3_states
datacolumns 17
datarows 35
otherdata 1
range 0.476911 0.481502
endheader
time	/jointset/r_shoulder/r_shoulder_elev/value	/jointset/r_shoulder/r_shoulder_elev/speed	/jointset/r_elbow/r_elbow_flex/value	/jointset/r_elbow/r_elbow_flex/speed	/forceset/TRIlong/activation	/forceset/TRIlong/fiber_length	/forceset/TRIlat/activation	/forceset/TRIlat/fiber_length	/forceset/TRImed/activation	/forceset/TRImed/fiber_length	/forceset/BIClong/activation	/forceset/BIClong/fiber_length	/forceset/BICshort/activation	/forceset/BICshort/fiber_length	/forceset/BRA/activation	/forceset/BRA/fiber_length
      0.476911	     10.078431	    353.806060	    183.619326	    -36.964985	      0.025099	      0.185993	      0.443049	      0.113024	      0.433653	      0.108103	      0.920393	      0.050453	      0.713106	      0.052378	      0.678080	      0.038389
      0.477091	     10.141960	    353.394616	    183.612723	    -36.537394	      0.025087	      0.186006	      0.440845	      0.113026	      0.431524	      0.108105	      0.921150	      0.050426	      0.716366	      0.052371	      0.681862	      0.038387
      0.477230	     10.191135	    353.069200	    183.607660	    -36.206660	      0.025077	      0.186040	      0.439149	      0.113028	      0.429886	      0.108107	      0.921731	      0.050404	      0.718860	      0.052365	      0.684754	      0.038386
      0.477369	     10.240264	    352.742322	    183.602642	    -35.878188	      0.025068	      0.186071	      0.437464	      0.113030	      0.428258	      0.108109	      0.922308	      0.050383	      0.721326	      0.052359	      0.687610	      0.038384
      0.477509	     10.289348	    352.413834	    183.597671	    -35.552006	      0.025058	      0.186103	      0.435789	      0.113033	      0.426640	      0.108112	      0.922880	      0.050362	      0.723764	      0.052353	      0.690433	      0.038383
      0.477648	     10.338385	    352.083453	    183.592744	    -35.228086	      0.025049	      0.186134	      0.434125	      0.113035	      0.425031	      0.108114	      0.923447	      0.050340	      0.726176	      0.052348	      0.693223	      0.038381
      0.477787	     10.387377	    351.751538	    183.587862	    -34.906644	      0.025039	      0.186167	      0.432471	      0.113037	      0.423432	      0.108116	      0.924010	      0.050319	      0.728562	      0.052342	      0.695981	      0.038380
      0.477926	     10.436323	    351.417589	    183.583025	    -34.587565	      0.025030	      0.186196	      0.430827	      0.113039	      0.421843	      0.108118	      0.924569	      0.050298	      0.730921	      0.052337	      0.698706	      0.038378
      0.478065	     10.485221	    351.082197	    183.578232	    -34.271153	      0.025021	      0.186230	      0.429193	      0.113041	      0.420264	      0.108121	      0.925123	      0.050277	      0.733255	      0.052331	      0.701400	      0.038377
      0.478205	     10.534073	    350.744633	    183.573483	    -33.957198	      0.025011	      0.186259	      0.427569	      0.113044	      0.418694	      0.108123	      0.925673	      0.050255	      0.735563	      0.052326	      0.704063	      0.038375
      0.478344	     10.582878	    350.405638	    183.568777	    -33.646057	      0.025002	      0.186292	      0.425955	      0.113046	      0.417133	      0.108125	      0.926219	      0.050234	      0.737847	      0.052320	      0.706695	      0.038374
      0.478483	     10.631636	    350.064537	    183.564115	    -33.337540	      0.024993	      0.186321	      0.424351	      0.113048	      0.415582	      0.108128	      0.926761	      0.050213	      0.740106	      0.052315	      0.709298	      0.038372
      0.478622	     10.680345	    349.721996	    183.559495	    -33.031968	      0.024983	      0.186355	      0.422756	      0.113051	      0.414040	      0.108130	      0.927298	      0.050192	      0.742341	      0.052310	      0.711871	      0.038371
      0.478761	     10.729008	    349.377335	    183.554918	    -32.729146	      0.024974	      0.186383	      0.421171	      0.113053	      0.412507	      0.108133	      0.927831	      0.050171	      0.744553	      0.052304	      0.714415	      0.038369
      0.478901	     10.777622	    349.031225	    183.550383	    -32.429394	      0.024965	      0.186417	      0.419596	      0.113056	      0.410983	      0.108135	      0.928360	      0.050149	      0.746740	      0.052299	      0.716930	      0.038368
      0.479040	     10.826187	    348.682979	    183.545889	    -32.132510	      0.024955	      0.186446	      0.418030	      0.113058	      0.409469	      0.108138	      0.928885	      0.050128	      0.748905	      0.052294	      0.719418	      0.038367
      0.479179	     10.874704	    348.333274	    183.541436	    -31.838812	      0.024946	      0.186479	      0.416473	      0.113061	      0.407963	      0.108141	      0.929406	      0.050107	      0.751047	      0.052289	      0.721877	      0.038365
      0.479318	     10.923173	    347.981420	    183.537024	    -31.548092	      0.024937	      0.186508	      0.414926	      0.113063	      0.406466	      0.108143	      0.929923	      0.050086	      0.753167	      0.052284	      0.724310	      0.038364
      0.479458	     10.971592	    347.628098	    183.532652	    -31.260666	      0.024928	      0.186541	      0.413388	      0.113066	      0.404978	      0.108146	      0.930436	      0.050065	      0.755264	      0.052279	      0.726716	      0.038362
      0.479597	     11.019962	    347.272614	    183.528320	    -30.976322	      0.024918	      0.186570	      0.411859	      0.113069	      0.403498	      0.108149	      0.930945	      0.050044	      0.757340	      0.052275	      0.729096	      0.038361
      0.479736	     11.068282	    346.915650	    183.524027	    -30.695373	      0.024909	      0.186603	      0.410339	      0.113071	      0.402027	      0.108151	      0.931450	      0.050023	      0.759394	      0.052270	      0.731449	      0.038360
      0.479875	     11.116552	    346.556514	    183.519774	    -30.417601	      0.024900	      0.186631	      0.408828	      0.113074	      0.400565	      0.108154	      0.931951	      0.050002	      0.761427	      0.052265	      0.733777	      0.038358
      0.479948	     11.141905	    346.365801	    183.517553	    -30.272473	      0.024895	      0.186645	      0.408037	      0.113076	      0.399800	      0.108155	      0.932212	      0.049991	      0.762487	      0.052263	      0.734991	      0.038358
      0.479995	     11.157999	    346.244215	    183.516148	    -30.180711	      0.024892	      0.186655	      0.407536	      0.113076	      0.399315	      0.108156	      0.932378	      0.049984	      0.763158	      0.052261	      0.735758	      0.038357
      0.480007	     11.162293	    346.211737	    183.515774	    -30.156289	      0.024891	      0.186658	      0.407418	      0.113077	      0.399200	      0.108157	      0.932422	      0.049982	      0.763190	      0.052261	      0.735813	      0.038357
      0.480020	     11.166586	    346.179244	    183.515400	    -30.131894	      0.024891	      0.186661	      0.407348	      0.113077	      0.399133	      0.108157	      0.932466	      0.049980	      0.762819	      0.052260	      0.735466	      0.038357
      0.480038	     11.172967	    346.130919	    183.514845	    -30.095682	      0.024889	      0.186665	      0.407246	      0.113077	      0.399034	      0.108157	      0.932532	      0.049977	      0.762257	      0.052260	      0.734937	      0.038357
      0.480130	     11.204858	    345.888810	    183.512080	    -29.915507	      0.024883	      0.186685	      0.406735	      0.113079	      0.398539	      0.108159	      0.932859	      0.049964	      0.759455	      0.052257	      0.732306	      0.038356
      0.480591	     11.363978	    344.670099	    183.498497	    -29.037698	      0.024853	      0.186778	      0.404206	      0.113088	      0.396091	      0.108168	      0.934467	      0.049894	      0.745708	      0.052245	      0.719386	      0.038353
      0.480762	     11.423003	    344.212446	    183.493549	    -28.720382	      0.024842	      0.186818	      0.403276	      0.113092	      0.395191	      0.108171	      0.935055	      0.049869	      0.740705	      0.052242	      0.714682	      0.038353
      0.480916	     11.475814	    343.796072	    183.489161	    -28.438475	      0.024832	      0.186902	      0.402448	      0.113095	      0.394389	      0.108174	      0.935577	      0.049846	      0.736271	      0.052239	      0.710511	      0.038353
      0.481069	     11.528562	    343.398304	    183.484816	    -28.168191	      0.024822	      0.186904	      0.401624	      0.113098	      0.393591	      0.108177	      0.936094	      0.049823	      0.731883	      0.052237	      0.706382	      0.038352
      0.481224	     11.581687	    342.979854	    183.480477	    -27.893395	      0.024812	      0.186923	      0.400797	      0.113101	      0.392791	      0.108180	      0.936611	      0.049800	      0.727504	      0.052235	      0.702260	      0.038352
      0.481363	     11.629220	    342.597746	    183.476626	    -27.648132	      0.024803	      0.186999	      0.400061	      0.113103	      0.392078	      0.108183	      0.937071	      0.049779	      0.723619	      0.052234	      0.698603	      0.038353
      0.481502	     11.676701	    342.233687	    183.472808	    -27.413237	      0.024794	      0.187001	      0.399328	      0.113106	      0.391368	      0.108186	      0.937527	      0.049759	      0.719770	      0.052233	      0.694978	      0.038353
